<svg xmlns="http://www.w3.org/2000/svg" width="222.78" height="323.56" viewBox="0 0 167.09 242.67"><path d="M166.84 235.55a6.89 6.89 0 01-6.87 6.87H7.1a6.89 6.89 0 01-6.86-6.87V7.12A6.89 6.89 0 017.1.25h152.86c3.78 0 6.87 3.1 6.87 6.87v228.43z" fill="#fff" stroke-width=".5" stroke="#000"/><text style="line-height:125%" x=".04" y="28.34" font-size="32" font-weight="400" letter-spacing="0" word-spacing="0" font-family="Bitstream Vera Sans"><tspan x=".04" y="28.34" style="-inkscape-font-specification:Arial" font-family="Arial">1</tspan></text><path d="M28.98 49.35c-.36-5.6-11.69-16.13-12.05-18.77-.37 2.64-11.69 13.17-12.05 18.77-.26 3.95 2.55 5.6 5.11 5.6 2.77-.04 5.06-3.87 5.84-4.62.37 1-2.41 9.22-3.28 9.22h8.76c-.87 0-3.65-8.23-3.28-9.22.69.69 2.7 4.5 5.84 4.61 2.56 0 5.37-1.64 5.11-5.6zm45.2-10.07C73.52 29.46 53.64 10.96 53 6.34c-.64 4.62-20.52 23.11-21.16 32.94-.45 6.95 4.5 9.82 8.98 9.82 4.86-.05 8.88-6.78 10.26-8.09.64 1.74-4.25 16.19-5.77 16.19H60.7c-1.53 0-6.41-14.45-5.77-16.19 1.2 1.2 4.76 7.9 10.26 8.1 4.48 0 9.42-2.88 8.97-9.83zm64 154.48c.36 5.6 11.68 16.13 12.04 18.77.37-2.64 11.7-13.17 12.06-18.77.25-3.95-2.56-5.6-5.12-5.6-2.77.04-5.05 3.87-5.84 4.62-.36-1 2.42-9.22 3.29-9.22h-8.77c.87 0 3.65 8.23 3.29 9.22-.7-.69-2.71-4.5-5.85-4.61-2.55 0-5.36 1.64-5.1 5.6zM74.5 102.21c-.64-9.82-20.52-28.31-21.16-32.94-.64 4.62-20.52 23.12-21.16 32.94-.45 6.95 4.49 9.83 8.98 9.83 4.86-.05 8.87-6.78 10.26-8.1.64 1.74-4.25 16.19-5.77 16.19h15.39c-1.53 0-6.42-14.45-5.77-16.18 1.2 1.2 4.76 7.89 10.26 8.09 4.48 0 9.42-2.88 8.97-9.83zM32.63 205.15c.64 9.82 20.52 28.32 21.16 32.94.64-4.62 20.52-23.11 21.16-32.94.45-6.95-4.49-9.83-8.98-9.83-4.86.06-8.87 6.79-10.26 8.1-.64-1.74 4.25-16.19 5.77-16.19H46.1c1.53 0 6.41 14.45 5.77 16.19-1.2-1.2-4.76-7.9-10.26-8.1-4.48 0-9.42 2.88-8.97 9.83zm-.33-61.33c.64 9.82 20.52 28.31 21.16 32.94.64-4.62 20.52-23.12 21.16-32.94.45-6.95-4.49-9.83-8.98-9.83-4.86.05-8.87 6.78-10.26 8.1-.64-1.74 4.25-16.19 5.77-16.19H45.76c1.53 0 6.42 14.45 5.78 16.18-1.22-1.2-4.77-7.89-10.27-8.09-4.48 0-9.42 2.88-8.97 9.83zM136.14 39.09c-.64-9.82-20.52-28.32-21.16-32.94-.64 4.62-20.52 23.12-21.16 32.94-.45 6.95 4.49 9.83 8.98 9.83 4.86-.05 8.87-6.78 10.26-8.1.64 1.74-4.25 16.19-5.78 16.19h15.4c-1.53 0-6.42-14.45-5.78-16.18 1.21 1.2 4.76 7.89 10.26 8.09 4.5 0 9.43-2.88 8.98-9.83zm.33 62.94c-.64-9.83-20.52-28.32-21.16-32.95-.64 4.63-20.52 23.12-21.16 32.95-.45 6.94 4.49 9.82 8.98 9.82 4.86-.05 8.87-6.78 10.25-8.09.65 1.73-4.24 16.18-5.77 16.18h15.4c-1.53 0-6.42-14.45-5.78-16.18 1.21 1.2 4.76 7.89 10.26 8.09 4.49 0 9.43-2.88 8.98-9.82zM94.6 204.96c.64 9.83 20.52 28.32 21.16 32.94.64-4.62 20.52-23.11 21.16-32.94.45-6.94-4.5-9.82-8.98-9.82-4.86.05-8.88 6.78-10.26 8.09-.64-1.74 4.25-16.18 5.77-16.18h-15.39c1.52 0 6.41 14.44 5.77 16.18-1.2-1.2-4.76-7.9-10.26-8.1-4.49 0-9.42 2.89-8.97 9.83zm-.33-61.33c.64 9.82 20.52 28.32 21.16 32.94.64-4.62 20.52-23.11 21.16-32.94.45-6.95-4.5-9.83-8.98-9.83-4.86.06-8.88 6.79-10.26 8.1-.64-1.74 4.25-16.19 5.77-16.19h-15.39c1.53 0 6.41 14.45 5.77 16.19-1.2-1.2-4.76-7.9-10.26-8.1-4.49 0-9.42 2.88-8.97 9.83zm11.04-71.94c-.64-9.83-20.52-28.32-21.16-32.95C83.51 43.37 63.63 61.86 63 71.7c-.45 6.94 4.5 9.82 8.98 9.82 4.86-.05 8.88-6.78 10.26-8.09.64 1.73-4.25 16.18-5.77 16.18h15.39c-1.53 0-6.41-14.45-5.77-16.18 1.2 1.2 4.76 7.89 10.26 8.09 4.49 0 9.42-2.88 8.97-9.82zM63.32 173.03c.64 9.82 20.52 28.31 21.16 32.94.64-4.62 20.52-23.12 21.16-32.94.45-6.95-4.49-9.83-8.98-9.83-4.86.05-8.87 6.78-10.26 8.1-.64-1.74 4.25-16.19 5.78-16.19h-15.4c1.53 0 6.42 14.45 5.78 16.18-1.21-1.2-4.76-7.89-10.26-8.09-4.5 0-9.43 2.88-8.98 9.83z"/><text style="line-height:125%" x="12.21" y="28.67" font-size="32" font-weight="400" letter-spacing="0" word-spacing="0" font-family="Bitstream Vera Sans"><tspan x="12.21" y="28.67">0</tspan></text><text style="line-height:125%" x="-166.84" y="-214.58" transform="scale(-1)" font-size="32" font-weight="400" letter-spacing="0" word-spacing="0" font-family="Bitstream Vera Sans"><tspan x="-166.84" y="-214.58" style="-inkscape-font-specification:Arial" font-family="Arial">1</tspan></text><text style="line-height:125%" x="-154.67" y="-214.25" transform="scale(-1)" font-size="32" font-weight="400" letter-spacing="0" word-spacing="0" font-family="Bitstream Vera Sans"><tspan x="-154.67" y="-214.25">0</tspan></text></svg>