<svg xmlns="http://www.w3.org/2000/svg" width="222.78" height="323.56" viewBox="0 0 167.09 242.67"><path d="M166.84 235.55a6.89 6.89 0 01-6.87 6.87H7.1a6.89 6.89 0 01-6.86-6.87V7.12A6.89 6.89 0 017.1.25h152.86c3.78 0 6.87 3.1 6.87 6.87v228.43z" fill="#fff" stroke-width=".5" stroke="#000"/><text style="line-height:125%" x="-.99" y="29.2" font-size="32" font-weight="400" letter-spacing="0" word-spacing="0" fill="#df0000" font-family="Bitstream Vera Sans"><tspan x="-.99" y="29.2" style="-inkscape-font-specification:Arial" font-family="Arial">1</tspan></text><path d="M23.33 32.28c-5.43 0-6.15 5.45-6.15 5.45s-.73-5.45-6.16-5.45c-3.8 0-7.24 2.44-7.24 7.05 0 6.1 11.02 12.22 13.4 21.16 2.26-8.94 13.4-15.07 13.4-21.16 0-4.6-3.45-7.05-7.25-7.05zM144 209.25c5.43 0 6.16-5.45 6.16-5.45s.72 5.45 6.15 5.45c3.8 0 7.24-2.45 7.24-7.06 0-6.09-11.01-12.2-13.4-21.15-2.26 8.93-13.39 15.06-13.39 21.16 0 4.6 3.44 7.05 7.24 7.05zM64.73 6.6c-9.01 0-10.22 9.04-10.22 9.04S53.31 6.6 44.3 6.6c-6.31 0-12.02 4.05-12.02 11.7 0 10.1 18.28 20.27 22.23 35.11 3.76-14.83 22.23-25 22.23-35.11 0-7.65-5.7-11.7-12.01-11.7zM44.3 236.2c9 0 10.21-9.04 10.21-9.04s1.2 9.04 10.22 9.04c6.3 0 12.01-4.05 12.01-11.7 0-10.1-18.28-20.27-22.23-35.11-3.75 14.83-22.23 25-22.23 35.11 0 7.65 5.7 11.7 12.02 11.7zM64.73 71.83c-9.01 0-10.22 9.04-10.22 9.04s-1.2-9.04-10.21-9.04c-6.31 0-12.02 4.05-12.02 11.7 0 10.11 18.28 20.27 22.23 35.12 3.76-14.83 22.23-25 22.23-35.12 0-7.65-5.7-11.7-12.01-11.7zM44.3 168.76c9 0 10.21-9.04 10.21-9.04s1.2 9.04 10.22 9.04c6.3 0 12.01-4.05 12.01-11.7 0-10.1-18.28-20.27-22.23-35.11-3.75 14.83-22.23 25-22.23 35.11 0 7.65 5.7 11.7 12.02 11.7zM122.2 7.2c-9 0-10.2 9.04-10.2 9.04s-1.21-9.05-10.22-9.05c-6.31 0-12.02 4.06-12.02 11.7 0 10.12 18.28 20.28 22.23 35.12 3.76-14.83 22.23-25 22.23-35.11 0-7.65-5.7-11.7-12.01-11.7zM101.79 236.8c9 0 10.21-9.04 10.21-9.04s1.2 9.04 10.22 9.04c6.3 0 12.01-4.05 12.01-11.7 0-10.1-18.28-20.27-22.23-35.11-3.76 14.83-22.23 25-22.23 35.1 0 7.66 5.7 11.71 12.01 11.71zM122.2 72.43c-9.02 0-10.22 9.04-10.22 9.04s-1.2-9.04-10.21-9.04c-6.31 0-12.02 4.05-12.02 11.7 0 10.11 18.28 20.27 22.23 35.12 3.76-14.83 22.23-25.01 22.23-35.12 0-7.65-5.7-11.7-12.01-11.7zm-20.43 96.93c9 0 10.21-9.04 10.21-9.04s1.2 9.04 10.22 9.04c6.3 0 12.01-4.05 12.01-11.7 0-10.1-18.28-20.27-22.23-35.11-3.76 14.83-22.23 25-22.23 35.1 0 7.66 5.7 11.71 12.01 11.71zM93.43 39.3c-9.01 0-10.22 9.04-10.22 9.04S82.01 39.3 73 39.3c-6.31 0-12.02 4.05-12.02 11.7 0 10.1 18.28 20.27 22.23 35.11 3.76-14.83 22.23-25 22.23-35.11 0-7.65-5.7-11.7-12.01-11.7zM72.53 203.1c9.02 0 10.22-9.04 10.22-9.04s1.2 9.04 10.21 9.04c6.31 0 12.02-4.05 12.02-11.7 0-10.11-18.28-20.27-22.23-35.11-3.76 14.82-22.23 25-22.23 35.1 0 7.66 5.7 11.71 12.01 11.71z" fill="#df0000"/><text style="line-height:125%" x="12.29" y="28.96" font-size="32" font-weight="400" letter-spacing="0" word-spacing="0" fill="#df0000" font-family="Bitstream Vera Sans"><tspan x="12.29" y="28.96" style="-inkscape-font-specification:Arial" font-family="Arial">0</tspan></text><text style="line-height:125%" x="-167.6" y="-212.06" transform="scale(-1)" font-size="32" font-weight="400" letter-spacing="0" word-spacing="0" fill="#df0000" font-family="Bitstream Vera Sans"><tspan x="-167.6" y="-212.06" style="-inkscape-font-specification:Arial" font-family="Arial">1</tspan></text><text style="line-height:125%" x="-154.32" y="-212.3" transform="scale(-1)" font-size="32" font-weight="400" letter-spacing="0" word-spacing="0" fill="#df0000" font-family="Bitstream Vera Sans"><tspan x="-154.32" y="-212.3" style="-inkscape-font-specification:Arial" font-family="Arial">0</tspan></text></svg>