<svg xmlns="http://www.w3.org/2000/svg" width="222.78" height="323.56" viewBox="0 0 167.09 242.67"><path d="M166.84 235.55a6.89 6.89 0 01-6.87 6.87H7.1a6.89 6.89 0 01-6.86-6.87V7.12A6.89 6.89 0 017.1.25h152.86c3.78 0 6.87 3.1 6.87 6.87v228.43z" fill="#fff" stroke-width=".5" stroke="#000"/><text style="line-height:125%" x="8.31" y="27.55" font-size="32" font-weight="400" letter-spacing="0" word-spacing="0" font-family="Bitstream Vera Sans"><tspan x="8.31" y="27.55" style="-inkscape-font-specification:Arial" font-family="Arial">2</tspan></text><path d="M20.69 43.74s3.53-2.82 3.53-6.74c0-2.29-2.03-6.09-6.74-6.09s-6.73 3.8-6.73 6.1c0 3.9 3.53 6.73 3.53 6.73-3.92-3.05-10.91-.97-10.91 5.13 0 3.06 2.5 6.42 6.42 6.42 4.7 0 6.73-5.13 6.73-5.13s.6 5.85-2.89 8.98h7.7c-3.48-3.13-2.88-8.98-2.88-8.98s2.03 5.13 6.73 5.13a6.48 6.48 0 006.42-6.42c0-6.1-6.99-8.18-10.9-5.13z"/><text style="line-height:125%" x="-158.86" y="-214.47" transform="scale(-1)" font-size="32" font-weight="400" letter-spacing="0" word-spacing="0" font-family="Bitstream Vera Sans"><tspan x="-158.86" y="-214.47" style="-inkscape-font-specification:Arial" font-family="Arial">2</tspan></text><path d="M146.48 198.74s-3.52 2.82-3.52 6.74c0 2.29 2.03 6.09 6.73 6.09s6.74-3.8 6.74-6.1c0-3.9-3.53-6.73-3.53-6.73 3.92 3.05 10.9.97 10.9-5.13 0-3.06-2.5-6.42-6.41-6.42-4.7 0-6.74 5.14-6.74 5.14s-.6-5.85 2.89-8.99h-7.7c3.49 3.13 2.89 8.99 2.89 8.99s-2.03-5.14-6.74-5.14a6.48 6.48 0 00-6.41 6.42c0 6.1 6.98 8.18 10.9 5.13zM89.58 55.5s5.96-4.77 5.96-11.4c0-3.87-3.44-10.3-11.4-10.3s-11.38 6.44-11.38 10.3c0 6.63 5.96 11.4 5.96 11.4-6.62-5.16-18.44-1.64-18.44 8.68 0 5.17 4.22 10.85 10.85 10.85 7.95 0 11.39-8.68 11.39-8.68s1.01 9.9-4.88 15.19h13.02c-5.9-5.3-4.88-15.19-4.88-15.19s3.44 8.68 11.39 8.68c6.63 0 10.85-5.69 10.85-10.85 0-10.32-11.82-13.84-18.45-8.68zM78.76 188.24s-5.97 4.78-5.97 11.4c0 3.87 3.44 10.3 11.4 10.3s11.38-6.43 11.38-10.3c0-6.62-5.96-11.4-5.96-11.4 6.63 5.17 18.44 1.64 18.44-8.68 0-5.16-4.22-10.85-10.85-10.85-7.95 0-11.39 8.68-11.39 8.68s-1-9.89 4.88-15.19H77.68c5.9 5.3 4.88 15.2 4.88 15.2s-3.43-8.69-11.39-8.69c-6.63 0-10.85 5.69-10.85 10.85 0 10.32 11.82 13.85 18.45 8.68z"/></svg>