<svg xmlns="http://www.w3.org/2000/svg" width="222.78" height="323.56" viewBox="0 0 167.09 242.67"><path d="M166.84 235.55a6.89 6.89 0 01-6.87 6.87H7.1a6.89 6.89 0 01-6.86-6.87V7.12A6.89 6.89 0 017.1.25h152.86c3.78 0 6.87 3.1 6.87 6.87v228.43z" fill="#fff" stroke-width=".5" stroke="#000"/><text style="line-height:125%" x="8.55" y="28.01" font-size="32" font-weight="400" letter-spacing="0" word-spacing="0" font-family="Bitstream Vera Sans"><tspan x="8.55" y="28.01" style="-inkscape-font-specification:Arial" font-family="Arial">4</tspan></text><path d="M28.98 49.35c-.36-5.6-11.69-16.13-12.05-18.77-.37 2.64-11.69 13.17-12.05 18.77-.26 3.95 2.55 5.6 5.11 5.6 2.77-.04 5.06-3.87 5.84-4.62.37 1-2.41 9.22-3.28 9.22h8.76c-.87 0-3.65-8.23-3.28-9.22.69.69 2.7 4.5 5.84 4.61 2.56 0 5.37-1.64 5.11-5.6zm46.8 15.53c-.65-9.82-20.53-28.32-21.17-32.94-.64 4.62-20.52 23.11-21.16 32.94-.45 6.95 4.5 9.83 8.98 9.83 4.86-.06 8.88-6.79 10.26-8.1.64 1.74-4.25 16.19-5.77 16.19H62.3c-1.53 0-6.41-14.45-5.77-16.19 1.2 1.2 4.76 7.9 10.26 8.1 4.48 0 9.42-2.88 8.97-9.83z"/><text style="line-height:125%" x="-158.98" y="-215.12" transform="scale(-1)" font-size="32" font-weight="400" letter-spacing="0" word-spacing="0" font-family="Bitstream Vera Sans"><tspan x="-158.98" y="-215.12" style="-inkscape-font-specification:Arial" font-family="Arial">4</tspan></text><path d="M138.17 193.76c.37 5.6 11.69 16.13 12.06 18.77.36-2.64 11.68-13.17 12.05-18.77.25-3.95-2.56-5.6-5.12-5.6-2.77.04-5.05 3.87-5.84 4.62-.36-1 2.42-9.22 3.29-9.22h-8.77c.87 0 3.65 8.23 3.29 9.22-.7-.69-2.71-4.5-5.85-4.61-2.55 0-5.36 1.64-5.1 5.6zM33.5 178.26c.64 9.82 20.52 28.31 21.16 32.94.64-4.62 20.52-23.12 21.16-32.94.44-6.95-4.5-9.83-8.98-9.83-4.86.05-8.88 6.78-10.26 8.1-.64-1.74 4.25-16.19 5.77-16.19h-15.4c1.54 0 6.42 14.45 5.78 16.18-1.21-1.2-4.76-7.89-10.26-8.09-4.49 0-9.42 2.88-8.97 9.83zm100.35-113.4c-.64-9.82-20.52-28.3-21.16-32.93-.64 4.62-20.52 23.11-21.16 32.94-.45 6.94 4.49 9.82 8.98 9.82 4.86-.05 8.87-6.78 10.26-8.09.64 1.74-4.25 16.19-5.78 16.19h15.4c-1.53 0-6.42-14.45-5.78-16.19 1.21 1.2 4.76 7.9 10.26 8.1 4.5 0 9.43-2.89 8.98-9.83zM91.57 178.26c.64 9.82 20.52 28.31 21.16 32.94.64-4.63 20.52-23.12 21.16-32.95.45-6.94-4.49-9.82-8.97-9.82-4.87.05-8.88 6.78-10.26 8.1-.64-1.74 4.24-16.2 5.77-16.2h-15.4c1.53 0 6.42 14.46 5.78 16.2-1.21-1.21-4.76-7.9-10.26-8.1-4.49 0-9.42 2.88-8.98 9.83z"/></svg>