<svg xmlns="http://www.w3.org/2000/svg" width="222.78" height="323.56" viewBox="0 0 167.09 242.67"><path d="M166.84 235.55a6.89 6.89 0 01-6.87 6.87H7.1a6.89 6.89 0 01-6.86-6.87V7.12A6.89 6.89 0 017.1.25h152.86c3.78 0 6.87 3.1 6.87 6.87v228.43z" fill="#fff" stroke-width=".5" stroke="#000"/><text style="line-height:125%" x="8.78" y="28.01" font-size="32" font-weight="400" letter-spacing="0" word-spacing="0" fill="#df0000" font-family="Bitstream Vera Sans"><tspan x="8.78" y="28.01" style="-inkscape-font-specification:Arial" font-family="Arial">5</tspan></text><path d="M23.33 32.28c-5.43 0-6.15 5.45-6.15 5.45s-.73-5.45-6.16-5.45c-3.8 0-7.24 2.44-7.24 7.05 0 6.1 11.02 12.22 13.4 21.16 2.26-8.94 13.4-15.07 13.4-21.16 0-4.6-3.45-7.05-7.25-7.05z" fill="#df0000"/><text style="line-height:125%" x="-158.82" y="-213.51" transform="scale(-1)" font-size="32" font-weight="400" letter-spacing="0" word-spacing="0" fill="#df0000" font-family="Bitstream Vera Sans"><tspan x="-158.82" y="-213.51" style="-inkscape-font-specification:Arial" font-family="Arial">5</tspan></text><path d="M144 209.25c5.43 0 6.16-5.45 6.16-5.45s.72 5.45 6.15 5.45c3.8 0 7.24-2.45 7.24-7.05 0-6.1-11.01-12.22-13.4-21.16-2.26 8.93-13.39 15.07-13.39 21.16 0 4.6 3.44 7.05 7.24 7.05zM66.33 41.45c-9.01 0-10.22 9.04-10.22 9.04s-1.2-9.04-10.21-9.04c-6.31 0-12.02 4.06-12.02 11.7 0 10.11 18.28 20.28 22.23 35.12 3.76-14.83 22.23-25 22.23-35.11 0-7.65-5.7-11.7-12.01-11.7zM45.9 200.67c9 0 10.21-9.04 10.21-9.04s1.2 9.04 10.22 9.04c6.3 0 12.01-4.05 12.01-11.7 0-10.11-18.28-20.27-22.23-35.12-3.76 14.83-22.23 25-22.23 35.12 0 7.65 5.7 11.7 12.02 11.7zm75.02-158.95c-9.01 0-10.22 9.05-10.22 9.05s-1.2-9.05-10.21-9.05c-6.3 0-12.02 4.06-12.02 11.7 0 10.11 18.29 20.28 22.23 35.12 3.76-14.83 22.24-25 22.24-35.11 0-7.65-5.71-11.7-12.02-11.7zm-20.43 159.22c9.01 0 10.22-9.04 10.22-9.04s1.2 9.04 10.21 9.04c6.3 0 12.02-4.05 12.02-11.7 0-10.1-18.29-20.27-22.23-35.11-3.76 14.83-22.24 25-22.24 35.1 0 7.66 5.71 11.71 12.02 11.71zm-7.06-99.3c-9.01 0-10.22 9.05-10.22 9.05s-1.2-9.05-10.21-9.05c-6.31 0-12.02 4.06-12.02 11.7 0 10.12 18.29 20.28 22.23 35.12 3.76-14.83 22.24-25 22.24-35.11 0-7.65-5.71-11.7-12.02-11.7z" fill="#df0000"/></svg>