<svg xmlns="http://www.w3.org/2000/svg" width="222.78" height="323.56" viewBox="0 0 167.09 242.67"><path d="M166.84 235.55a6.89 6.89 0 01-6.87 6.87H7.1a6.89 6.89 0 01-6.86-6.87V7.12A6.89 6.89 0 017.1.25h152.86c3.78 0 6.87 3.1 6.87 6.87v228.43z" fill="#fff" stroke-width=".5" stroke="#000"/><text style="line-height:125%" x="7.85" y="26.41" font-size="32" font-weight="400" letter-spacing="0" word-spacing="0" fill="#df0000" font-family="Bitstream Vera Sans"><tspan x="7.85" y="26.41" style="-inkscape-font-specification:Arial" font-family="Arial">6</tspan></text><text style="line-height:125%" x="-159.49" y="-216.72" transform="scale(-1)" font-size="32" font-weight="400" letter-spacing="0" word-spacing="0" fill="#df0000" font-family="Bitstream Vera Sans"><tspan x="-159.49" y="-216.72" style="-inkscape-font-specification:Arial" font-family="Arial">6</tspan></text><path d="M21.76 37.26c-3.13-4.23-4.8-8.53-4.8-8.53s-1.66 4.3-4.78 8.53c-3.13 4.23-7.03 6.98-7.03 6.98s3.9 2.74 7.03 6.98c3.13 4.22 4.79 8.52 4.79 8.52s1.66-4.3 4.79-8.52c3.13-4.24 7.02-6.98 7.02-6.98s-3.9-2.75-7.02-6.98zM155.4 191.52c-3.13-4.23-4.79-8.53-4.79-8.53s-1.66 4.3-4.79 8.53c-3.13 4.23-7.02 6.98-7.02 6.98s3.9 2.75 7.02 6.98c3.13 4.23 4.8 8.53 4.8 8.53s1.65-4.3 4.78-8.53c3.13-4.23 7.03-6.98 7.03-6.98s-3.9-2.75-7.03-6.98zm-36.89-11.73c-5.48-7.41-8.4-14.94-8.4-14.94s-2.9 7.53-8.39 14.94c-5.48 7.41-12.3 12.23-12.3 12.23s6.82 4.82 12.3 12.23 8.4 14.95 8.4 14.95 2.91-7.54 8.4-14.95c5.47-7.41 12.3-12.23 12.3-12.23s-6.83-4.82-12.3-12.23zm0-141.2c-5.48-7.41-8.4-14.95-8.4-14.95s-2.9 7.54-8.39 14.95c-5.48 7.4-12.3 12.23-12.3 12.23s6.82 4.82 12.3 12.23 8.4 14.95 8.4 14.95 2.91-7.54 8.4-14.95c5.47-7.41 12.3-12.23 12.3-12.23S124 46 118.54 38.59zm0 69.7c-5.48-7.41-8.4-14.95-8.4-14.95s-2.9 7.54-8.39 14.95c-5.48 7.41-12.3 12.23-12.3 12.23s6.82 4.82 12.3 12.23 8.4 14.95 8.4 14.95 2.91-7.54 8.4-14.95c5.47-7.41 12.3-12.23 12.3-12.23s-6.83-4.82-12.3-12.23zm-54.11 71.62c-5.48-7.41-8.4-14.95-8.4-14.95s-2.91 7.54-8.4 14.95c-5.47 7.41-12.3 12.23-12.3 12.23s6.83 4.82 12.3 12.23c5.49 7.41 8.4 14.95 8.4 14.95s2.92-7.54 8.4-14.95c5.48-7.41 12.31-12.23 12.31-12.23s-6.83-4.82-12.31-12.23zm0-141.2C58.93 31.29 56 23.76 56 23.76s-2.91 7.53-8.4 14.95c-5.47 7.4-12.3 12.23-12.3 12.23s6.83 4.81 12.3 12.23c5.49 7.41 8.4 14.94 8.4 14.94s2.92-7.53 8.4-14.94c5.48-7.41 12.31-12.23 12.31-12.23s-6.83-4.82-12.31-12.23zm0 69.7C58.93 101 56 93.46 56 93.46s-2.91 7.54-8.4 14.95c-5.47 7.4-12.3 12.23-12.3 12.23s6.83 4.82 12.3 12.23c5.49 7.41 8.4 14.95 8.4 14.95s2.92-7.54 8.4-14.95a61.1 61.1 0 0112.31-12.23s-6.83-4.82-12.31-12.23z" fill="#df0000"/></svg>