<svg xmlns="http://www.w3.org/2000/svg" width="222.78" height="323.56" viewBox="0 0 167.09 242.67"><path d="M166.84 235.55a6.89 6.89 0 01-6.87 6.87H7.1a6.89 6.89 0 01-6.86-6.87V7.12A6.89 6.89 0 017.1.25h152.86c3.78 0 6.87 3.1 6.87 6.87v228.43z" fill="#fff" stroke-width=".5" stroke="#000"/><text style="line-height:125%" x="6.25" y="28.01" font-size="32" font-weight="400" letter-spacing="0" word-spacing="0" font-family="Bitstream Vera Sans"><tspan x="6.25" y="28.01" style="-inkscape-font-specification:Arial" font-family="Arial">A</tspan></text><path d="M28.98 49.35c-.36-5.6-11.69-16.13-12.05-18.77-.37 2.64-11.69 13.17-12.05 18.77-.26 3.95 2.55 5.6 5.11 5.6 2.77-.04 5.06-3.87 5.84-4.62.37 1-2.41 9.22-3.28 9.22h8.76c-.87 0-3.65-8.23-3.28-9.22.69.69 2.7 4.5 5.84 4.61 2.56 0 5.37-1.64 5.11-5.6z"/><text style="line-height:125%" x="-160.91" y="-215.1" transform="scale(-1)" font-size="32" font-weight="400" letter-spacing="0" word-spacing="0" font-family="Bitstream Vera Sans"><tspan x="-160.91" y="-215.1" style="-inkscape-font-specification:Arial" font-family="Arial">A</tspan></text><path d="M138.17 193.76c.37 5.6 11.69 16.13 12.06 18.77.36-2.64 11.68-13.17 12.05-18.77.25-3.95-2.56-5.6-5.12-5.6-2.77.04-5.05 3.87-5.84 4.62-.36-1 2.42-9.22 3.29-9.22h-8.77c.87 0 3.65 8.23 3.29 9.22-.7-.69-2.71-4.5-5.85-4.61-2.55 0-5.36 1.64-5.1 5.6zM79.5 183.52c-7.83 0-14.3-.07-14.38-.15-.08-.08.56-.68 1.42-1.35 3.13-2.4 5.83-6.42 8.94-13.3 2.14-4.74 2.83-6.64 3.54-9.77 1.13-5 1.1-8.44-.1-9.88l-.59-.7-2.33 2.45a30.2 30.2 0 01-9.72 6.69 25.4 25.4 0 01-11.3 2.44c-3.58.06-4.34-.04-6.9-.83-6.43-2-11.65-6.6-14.69-12.93-1.83-3.82-2.3-5.93-2.39-10.79-.07-3.93.02-4.69.91-8.11a65.06 65.06 0 017.17-16.58c3.53-5.62 11.69-16.03 20.3-25.94 7.1-8.16 9.96-11.8 14.9-18.95 5.27-7.61 7.36-11.26 8.36-14.58.4-1.33.8-2.42.88-2.42.1 0 .6 1.32 1.15 2.94 2.15 6.41 7.73 15.2 15.82 24.9 1.44 1.73 5.63 6.65 9.32 10.94 12.06 14.05 17.16 21.12 21.66 30.07 3.48 6.94 4.86 12.28 4.7 18.25-.22 7.64-2.66 13.03-8.33 18.36a23.82 23.82 0 01-8.76 5.09c-.88.25-3.26.57-5.3.71-6.08.43-10.61-.76-16.93-4.45-2.96-1.73-6.31-4.52-7.24-6.04-.75-1.22-1.32-1.14-1.88.26-.94 2.36-1.1 4.48-.52 7.31 1.79 8.84 7.52 20.15 12.44 24.58l1.99 1.78H79.5zm12.99-4.67c-1.54-1.23-4.88-6-6.54-9.31-1.72-3.46-2.24-6-1.76-8.49l.53-2.7c.1-.54-.12-1.38-.63-2.34l-.8-1.5-.88 1.68-.89 1.7.59 1.55c.86 2.3.66 5.64-.5 8.15-1.48 3.18-6.4 10.49-7.67 11.38-1.49 1.04-.83 1 2-.1 2.04-.8 2.7-.9 6.3-.93 4.13-.04 7.9.5 9.55 1.35 1.54.8 1.94.55.7-.44zm-5.93-2.07c-1.91-.41-6.73-.3-8.52.22-.79.22-.79.21.18-.88 1.33-1.5 2.16-3.1 3.74-7.09 1.2-3.07 1.36-3.32 1.65-2.6.17.44.86 2.29 1.52 4.1 1.17 3.18 1.9 4.51 3.3 6.04.74.8.78.8-1.87.21zm31.8-21.74c4.48-1.7 8.63-5.7 10.81-10.39a22.98 22.98 0 002.28-8.32c.58-5.02-.26-9.53-3-15.93-3.6-8.45-8.68-15.4-19.29-26.43C93.04 77.22 89.04 72 85.25 62.77a28.65 28.65 0 01-1.42-4.24c-.13-.75-.33-1.36-.45-1.35-.12 0-.58 1.22-1.03 2.7-2.72 8.9-8.84 17.49-23.08 32.36-9.92 10.36-11.46 12.2-15.53 18.5-5.32 8.22-7.77 14.84-8.04 21.72-.44 10.84 5.25 20.11 13.9 22.67 5.29 1.56 12.55.3 18.27-3.2 4.6-2.8 6.93-5.1 8.7-8.6.57-1.12 1.09-2.1 1.15-2.17.07-.08.64.34 1.28.94 1.13 1.05 3.1 4.39 3.9 6.63l.4 1.08 1.05-2.52c.7-1.67 1.64-3.16 2.78-4.43l1.72-1.91 1.14 2.28c2.62 5.22 9.93 10.37 17.38 12.26 3.18.8 8.25.6 11-.44zm-8.5-.24a19.92 19.92 0 01-7.25-2.21c-7.43-3.6-11.35-7.6-12.11-12.37-.14-.84-.4-1.52-.58-1.52-1.09.02-4.6 4.07-5.8 6.72-.27.6-.62 1.1-.78 1.1-.15 0-.6-.61-.99-1.36-1.13-2.16-3.24-4.93-4.4-5.8-1.19-.86-1.18-.87-1.74 1a19.8 19.8 0 01-3.02 5.9c-1.22 1.54-6.37 5.22-9.02 6.42-5.94 2.71-12.95 2.74-17.65.08-4.04-2.29-7.05-6.52-8.56-12-2.12-7.74-.94-15.02 3.85-23.74 4.42-8.03 7.14-11.65 15.26-20.26C70.54 82.5 77.32 73.71 81.24 65.42c1.63-3.44 2-3.26 1.07.53-1.57 6.47-12.14 22.15-28.28 41.95-4.35 5.34-9.03 13.19-10.47 17.54-1.97 5.98-2.26 10.8-.93 15.72 1.89 7 5.79 11.05 11.5 11.91 8.27 1.26 15.67-4.74 20.58-16.67l1.18-2.88 1.62 2.43c1.76 2.64 5.34 6.4 6.08 6.38.57 0 4.76-4.5 6.14-6.59a7.52 7.52 0 011.19-1.54c.1-.01.38.52.62 1.18.25.66 1.03 2.33 1.73 3.72 5 9.79 11.62 14.6 19.28 13.98 3.4-.28 5.87-1.73 8.25-4.86 2.58-3.39 3.8-6.56 4.21-10.95.46-4.88-.77-10.26-3.8-16.58-1.68-3.54-6.7-10.77-10.67-15.4-7.78-9.05-20.65-27.07-24.19-33.86a30.84 30.84 0 01-2.39-7.8c-.23-1.76.13-1.4 1.07 1.07 1.53 4.02 5.32 10.03 9.52 15.1 2.63 3.18 5.54 6.39 12.82 14.15 4.7 5 7.67 8.44 11.04 12.76 5.76 7.4 10.5 17.18 11.64 24.07 1.11 6.71-1.57 15.12-6.25 19.56a20.35 20.35 0 01-8.13 4.23c-2.29.52-3.09.55-5.82.23zm-2.85-3.6c-2.73-1-5-2.47-6.81-4.41-3.22-3.45-6.57-9.25-8.1-14.03-.8-2.5-1.08-2.87-1.4-1.81-.65 2.16-6.35 10.4-7.2 10.42-.6 0-3.24-3.41-5.75-7.46-1.3-2.1-2.41-3.85-2.46-3.9-.05-.05-.39 1.08-.75 2.5-1.64 6.53-6.54 14.36-10.82 17.3-6.03 4.13-14.97 2.3-17.7-3.62-.72-1.57-1.34-4.88-.91-4.9.14 0 .27.15.27.33 0 .72 1.84 2.96 3.09 3.79 4.9 3.25 9.61 2.72 15.05-1.69 4.26-3.44 8.2-11.21 6.69-13.18-.39-.51-.43-.43-.3.7.18 1.66-.54 2.78-2.49 3.8a5.69 5.69 0 00-1.83 1.37c-.29.52-.39.5-1.25-.3-.51-.48-1.27-.86-1.69-.86-.74.01-.75.02-.14.67.72.78.85 3.33.25 5.2-.48 1.5-2.95 4.16-4.63 5-2.84 1.4-7.34.47-9.64-2-3.28-3.52-2-9.45 2.6-11.93 2.2-1.2 5.34-.74 7 1 .77.82.78.86.27 1.98-.72 1.56-1.22 1.66-2.44.48-.95-.92-1.17-.99-2.64-.82a4.25 4.25 0 00-3.73 5.5c.44 1.51 2.77 3.6 4.32 3.86 4.08.7 7.88-3.8 6.85-8.1-.32-1.33-.26-1.8.47-3.98 1.6-4.8.7-12.2-1.85-15.29-.5-.6-.51-.6-.2.24.34.91.18 1.85-.32 1.86-.15 0-.29-.15-.29-.33 0-.19-.6-.6-1.34-.92-1.68-.72-2.97-.34-3.68 1.09-.46.93-.46.97.1.73 1.33-.57 1.8-.58 3-.06 2.35 1.02 3.76 3.86 3.8 7.66.03 2.3-.48 4.99-.93 5-.1 0-.72-.42-1.4-.94a6.2 6.2 0 00-4.63-1.54c-3.34.07-6.6 2.54-8.37 6.38a11.56 11.56 0 00-1.04 3.07c0 .77-.01.78-.38.17-.54-.88-.5-5.9.06-8.68 1.42-6.98 7-17.1 13.37-24.27l1.71-1.93.23 3.02c.18 2.37.42 3.37 1.09 4.63 1.04 1.96 3.3 4.05 4.95 4.57 1.8.56 4.64.23 5.85-.7 1.25-.95 2.14-2.93 1.84-4.08-.16-.6-.11-.81.17-.73.68.22 1.61 1.67 1.94 3.02.33 1.37.02 4.42-.56 5.54-.58 1.13-2.45 2.35-4.38 2.87-2.93.78-3.53 1.12-4.07 2.3-.62 1.37-.32 3.22.61 3.7.63.32.63.3.12-.4-.68-.95-.68-1.1.09-1.9.55-.56 1.07-.66 3.77-.7 3.96-.07 5.43-.68 6.57-2.72 1.24-2.23 1.53-3.84 1.08-6.13-.72-3.62-2.63-6.61-4.95-7.75-1.93-.94-3.48-.96-4.6-.06-1 .82-1.1 1.46-.15.93.98-.55 2.14.06 2.74 1.42.42.97.42 1.27.05 2.2-1.23 3.07-4.82 3.36-8 .65a7.63 7.63 0 01-2.95-6.2 8.64 8.64 0 014.92-8.1c1.26-.63 4.05-.7 5.64-.16 4.44 1.52 8.51 7.15 10 13.86.56 2.48 1.96 13.2 1.98 15.17.02.8-.24 1.81-.6 2.43-.8 1.35-.78 2.22.04 2.72.36.22.65.72.66 1.12 0 .43.2.72.5.72.28 0 .47-.3.46-.74 0-.4.28-.9.63-1.13.77-.5.8-1.4.07-2.74-.44-.82-.5-1.57-.38-4.07.21-4 1.14-10.5 1.93-13.48 1.67-6.3 5.23-11.65 8.92-13.4 3-1.41 7.02-.47 9.39 2.22 1.5 1.7 1.91 3.01 1.81 5.8a7.04 7.04 0 01-1.18 4.2c-1.47 2.55-3.58 3.87-5.86 3.71-1.33-.09-1.77-.3-2.67-1.25-.86-.9-1.09-1.42-1.1-2.45-.03-1.72 1.15-3.04 2.54-2.85 1.16.15 1.21-.22.13-.91-1.3-.82-3.63-.41-5.5.96a12.16 12.16 0 00-3.92 5.96c-.48 1.87-.1 5.29.77 7.02 1.2 2.4 2.2 2.87 6.25 3 3.03.1 3.53.2 4.18.83.64.62.68.8.33 1.4-.34.55-.34.65.01.52.62-.21 1.01-1.64.74-2.66-.41-1.53-1.8-2.56-3.98-2.95a8.33 8.33 0 01-2.84-1.01c-2.51-1.92-3.2-7.17-1.27-9.7.88-1.16 1.24-1.09 1.05.2-.2 1.39.55 2.8 2.08 3.94.92.68 1.6.89 3.15.96 2.49.1 3.93-.5 5.84-2.47 2.05-2.1 2.73-3.91 2.71-7.15 0-1.46.1-2.66.22-2.66.4 0 4.82 5.7 7.64 9.85 5.97 8.8 8.52 15.86 8.08 22.32-.2 2.91-.65 3.63-1 1.6-.43-2.68-3.3-6.58-5.92-8.06-1.13-.64-1.88-.81-3.6-.8-2.34 0-3.72.53-5.24 2l-.85.8-.44-.74c-.28-.48-.45-1.8-.47-3.64-.04-3.37.64-5.36 2.52-7.34 1.48-1.57 2.72-1.87 3.97-.98l.94.67-.02-.92c-.03-2.06-2.87-2.83-4.86-1.3l-1.02.77.13-.98c.17-1.26-.39-1.06-1.45.54-1.25 1.85-1.77 3.83-1.9 7.15-.11 2.53 0 3.47.6 5.46.4 1.32.73 2.8.74 3.28l-.04 2.73c-.06 3.07 1.3 5.37 3.82 6.49 3.72 1.65 7.54-.68 7.49-4.56a3.88 3.88 0 00-2.39-3.8c-1.2-.6-3.23-.37-4.13.47-.6.56-.65.54-1.64-.41-1-.97-1-1-.47-1.85 1.13-1.79 5.15-2.76 7.17-1.73.48.24 1.41.98 2.08 1.65 3.2 3.23 3.45 7.6.62 10.93-2.29 2.68-4.66 3.28-8.28 2.12-2.61-.84-4.24-2.12-5.25-4.17-1.44-2.88-1.45-3.91-.05-6.73.34-.7-1.4-.09-2.24.78-.74.76-1.03.9-1.25.58a1.77 1.77 0 01-.28-.65c0-.12-.72-.68-1.6-1.23-2.23-1.42-3.14-3.44-2.34-5.17.32-.68.31-.69-.16-.08-1.08 1.39-.68 3.65 1.3 7.37 3.4 6.37 8.68 10.27 14.25 10.51 2.25.1 2.71.02 4.28-.78 1.8-.91 3.59-2.75 4.61-4.75l.59-1.13.03 1.12c.06 2.42-2.6 6.84-5.12 8.5-1.47.98-1.83 1.08-4.66 1.2-2.6.12-3.39.02-5.07-.59zm3.4-8.53c-.91-.16-2.35-1.57-2.92-2.85-.45-1.03-.66-3.62-.3-3.63.7 0 2.06 1.22 2.6 2.33.57 1.17.77 1.32 1.73 1.3 1.31-.01 1.99-.83 1.41-1.7-.2-.3-.67-.54-1.05-.52-.75.04-.9-.48-.3-1.08.4-.42 1.79-.54 2.64-.23.7.26 1.49 1.78 1.5 2.93.02 1.1-.93 2.47-2.21 3.15-.9.48-1.67.56-3.1.3zm-58.1-.88c-1.5-1.35-1.82-2.86-.91-4.35.72-1.2 1.94-1.65 3.08-1.15.96.42 1.1 1.33.16 1.1-.46-.1-.73.08-1 .7-.31.7-.28.93.22 1.47.33.35.92.63 1.32.62.83 0 2.05-1.4 2.03-2.32 0-.33.2-.6.44-.6s.62-.23.83-.5c.66-.81.96-.56.98.8.04 2.93-1.55 4.86-4.23 5.12-1.6.16-1.81.1-2.92-.89zm30.63-23.63a5.38 5.38 0 00-.5-2.17c-.67-1.11-.62-1.64.24-2.84l.75-1.06.75 1.18c.68 1.05.71 1.27.34 2.18-.22.55-.46 1.69-.53 2.53-.16 2.03-1 2.17-1.05.18zm-1.69-7.93c-.7-3.27-2.8-6.86-5.65-9.64-3-2.93-5.47-4.2-7.46-3.86-1.06.19-1.25.13-1.25-.34 0-.9.72-2.01 1.74-2.7 1.84-1.26 3.2-.76 6.14 2.22 4.28 4.36 7.36 10.3 7.42 14.34.03 2.21-.47 2.2-.94-.02zm3.2.2c-.05-3.9 2.66-9.74 6.46-13.9 3.75-4.08 6.26-4.72 8.37-2.12.38.46.69 1.15.7 1.53 0 .63-.16.7-1.84.71-2.58.02-4.51 1.08-7.45 4.1-2.83 2.9-4.77 6.3-5.32 9.31-.2 1.12-.5 2.04-.64 2.04s-.27-.75-.28-1.68zm-1.37-5.18c-.04-2.81-.65-6.04-2.65-13.97-1.93-7.65-1.67-11.8 1.03-16.9.6-1.12 1.26-2.68 1.46-3.44l.37-1.4.42 1.28c.22.7.94 2.38 1.59 3.71 2.52 5.22 2.86 8.8 1.4 14.74a143.76 143.76 0 00-2.82 14.02c-.48 3.5-.77 4.22-.8 1.96zm-3.79-6.3c-.5-.73-1.75-2.33-2.79-3.57-2.3-2.75-3.25-4.51-3.53-6.57-.36-2.74.79-4.45 2.73-4.05 1.87.38 2.75 2.69 3.68 9.67.39 2.88.79 5.37.9 5.54.1.17.13.3.06.3-.08.01-.55-.59-1.05-1.31zm7.4.43c.06-.53.26-2.41.43-4.18.55-5.71 1.58-8.86 3.33-10.15 1.18-.86 1.7-.87 2.48-.03.49.52.63 1.14.64 2.8.03 2.72-.44 3.71-3.54 7.55a41.86 41.86 0 00-2.96 4l-.51.98zm-14.9-7.68c-.92-.58-1.54-.59-2.91-.04-.49.2-.47.06.14-1.04a18.7 18.7 0 011.78-2.55l1.08-1.27.02 1.46c.01.8.24 2.05.5 2.78.28.72.47 1.3.43 1.3a25.33 25.33 0 01-1.04-.64zm22.48-.82c.12-.7.3-1.97.4-2.84l.18-1.6.85 1.26c.47.69 1.1 1.72 1.41 2.29l.56 1.03-1.06.02c-.59 0-1.4.26-1.82.56l-.75.54zM77 82.96a2.7 2.7 0 00-1.38-.6c-.33 0-.6-.06-.6-.14-.01-.24 2.49-4.03 2.77-4.2.16-.1.19.37.07 1.08-.12.7-.13 2-.03 2.88.1.9.12 1.62.06 1.61a5.1 5.1 0 01-.9-.63zm11.92-2.12c0-1.4.05-2.54.08-2.54.13 0 2.72 3.78 2.73 3.97 0 .11-.15.11-.34 0-.18-.1-.81.1-1.4.46l-1.08.65z"/></svg>