<svg xmlns="http://www.w3.org/2000/svg" xmlns:xlink="http://www.w3.org/1999/xlink" width="222.78" height="323.56" viewBox="0 0 167.09 242.67"><defs><radialGradient r="81.9" fy="511.22" fx="171.49" cy="511.22" cx="171.49" gradientTransform="matrix(1.15299 -.67392 .39482 .67549 -233.63 270.4)" gradientUnits="userSpaceOnUse" id="d" xlink:href="#a"/><radialGradient xlink:href="#b" id="c" gradientUnits="userSpaceOnUse" gradientTransform="matrix(-1.12242 .00551 -.00909 -1.85031 -.03 -10.23)" cx="0" cy="-3.23" fx="0" fy="-3.23" r="8"/><linearGradient id="b"><stop offset="0" stop-color="#df0000"/><stop offset="1" stop-color="#df0000" stop-opacity=".64"/></linearGradient><linearGradient id="a"><stop offset="0" stop-color="#fff" stop-opacity=".44"/><stop offset="1" stop-opacity="0"/></linearGradient></defs><path d="M166.84 235.55a6.89 6.89 0 01-6.87 6.87H7.1a6.89 6.89 0 01-6.86-6.87V7.12A6.89 6.89 0 017.1.25h152.86c3.78 0 6.87 3.1 6.87 6.87v228.43z" fill="#fff" stroke-width=".5" stroke="#000"/><text style="line-height:125%" x="6.25" y="28.01" font-size="32" font-weight="400" letter-spacing="0" word-spacing="0" fill="#df0000" font-family="Bitstream Vera Sans"><tspan x="6.25" y="28.01" style="-inkscape-font-specification:Arial" font-family="Arial">A</tspan></text><text style="line-height:125%" x="-161.09" y="-213.51" transform="scale(-1)" font-size="32" font-weight="400" letter-spacing="0" word-spacing="0" fill="#df0000" font-family="Bitstream Vera Sans"><tspan x="-161.09" y="-213.51" style="-inkscape-font-specification:Arial" font-family="Arial">A</tspan></text><path d="M3.24-4.72C1.13-7.6 0-10.5 0-10.5s-1.13 2.91-3.24 5.78C-5.36-1.86-8 0-8 0s2.64 1.86 4.76 4.73C-1.13 7.59 0 10.5 0 10.5s1.13-2.91 3.24-5.77C5.36 1.86 8 0 8 0S5.36-1.86 3.24-4.72z" transform="translate(82.28 116.89) scale(5.95137)" fill="url(#c)"/><path transform="matrix(-.2491 .04028 -.04172 -.25798 131.78 225.09)" d="M117.3 604.27s-8.07-94.95 22.86-122.86c34.76-31.37 140-11.43 140-11.43s-71.54 24.84-100 48.57c-27.21 22.7-62.86 85.72-62.86 85.72z" fill="url(#d)" filter="url(#filter3834-6-0)"/><path d="M21.76 37.26c-3.13-4.23-4.8-8.53-4.8-8.53s-1.66 4.3-4.78 8.53c-3.13 4.23-7.03 6.98-7.03 6.98s3.9 2.74 7.03 6.98c3.13 4.22 4.79 8.52 4.79 8.52s1.66-4.3 4.79-8.52c3.13-4.24 7.02-6.98 7.02-6.98s-3.9-2.75-7.02-6.98zM155.41 191.53c-3.13-4.23-4.79-8.53-4.79-8.53s-1.66 4.3-4.79 8.53c-3.13 4.22-7.02 6.97-7.02 6.97s3.9 2.75 7.02 6.98c3.13 4.23 4.8 8.53 4.8 8.53s1.65-4.3 4.78-8.53c3.13-4.23 7.03-6.98 7.03-6.98s-3.9-2.75-7.03-6.98z" fill="#df0000"/></svg>