<svg xmlns="http://www.w3.org/2000/svg" xmlns:xlink="http://www.w3.org/1999/xlink" width="222.78" height="323.56" viewBox="0 0 167.09 242.67"><defs><radialGradient xlink:href="#a" id="d" cx="-.21" cy="-4.58" fx="-.21" fy="-4.58" r="8" gradientTransform="matrix(-1 0 0 -1.72018 -.41 -13.03)" gradientUnits="userSpaceOnUse"/><radialGradient r="81.9" fy="511.22" fx="171.49" cy="511.22" cx="171.49" gradientTransform="matrix(1.15299 -.67392 .39482 .67549 -233.63 270.4)" gradientUnits="userSpaceOnUse" id="e" xlink:href="#b"/><radialGradient r="81.9" fy="492.63" fx="159.35" cy="492.63" cx="159.35" gradientTransform="matrix(1.08948 -.71514 .44645 .65627 -244.93 290.92)" gradientUnits="userSpaceOnUse" id="f" xlink:href="#c"/><linearGradient id="a"><stop offset="0" stop-color="#df0000"/><stop offset="1" stop-color="#df0000" stop-opacity=".67"/></linearGradient><linearGradient id="b"><stop offset="0" stop-color="#fff" stop-opacity=".31"/><stop offset="1" stop-opacity="0"/></linearGradient><linearGradient id="c"><stop offset="0" stop-color="#fff" stop-opacity=".29"/><stop offset="1" stop-opacity="0"/></linearGradient></defs><path d="M166.84 235.55a6.89 6.89 0 01-6.87 6.87H7.1a6.89 6.89 0 01-6.86-6.87V7.12A6.89 6.89 0 017.1.25h152.86c3.78 0 6.87 3.1 6.87 6.87v228.43z" fill="#fff" stroke-width=".5" stroke="#000"/><text style="line-height:125%" x="6.25" y="28.01" font-size="32" font-weight="400" letter-spacing="0" word-spacing="0" fill="#df0000" font-family="Bitstream Vera Sans"><tspan x="6.25" y="28.01" style="-inkscape-font-specification:Arial" font-family="Arial">A</tspan></text><path d="M3.68-9C.43-9 0-5.52 0-5.52S-.43-9-3.68-9C-5.95-9-8-7.44-8-4.5-8-.61-1.42 3.3 0 9 1.35 3.3 8-.61 8-4.5 8-7.44 5.95-9 3.68-9z" transform="matrix(6.8256 0 0 6.38811 83.14 122.27)" fill="url(#d)"/><path transform="matrix(.2922 0 0 .3026 -4.33 -71.84)" d="M117.3 604.27s-8.07-94.95 22.86-122.86c34.76-31.37 140-11.43 140-11.43s-71.54 24.84-100 48.57c-27.21 22.7-62.86 85.72-62.86 85.72z" fill="url(#e)" filter="url(#filter3834-6)"/><path transform="matrix(.22705 .0665 -.06483 .27594 94.81 -72.1)" d="M117.3 604.27s-8.07-94.95 22.86-122.86c34.76-31.37 140-11.43 140-11.43s-63.1 37.07-91.55 60.8c-27.21 22.7-71.3 73.49-71.3 73.49z" fill="url(#f)" filter="url(#filter3834-6-3)"/><path d="M23.33 32.28c-5.43 0-6.15 5.45-6.15 5.45s-.73-5.45-6.16-5.45c-3.8 0-7.24 2.44-7.24 7.05 0 6.1 11.02 12.22 13.4 21.16 2.26-8.94 13.4-15.07 13.4-21.16 0-4.6-3.45-7.05-7.25-7.05z" fill="#df0000"/><text style="line-height:125%" x="-161.09" y="-213.51" transform="scale(-1)" font-size="32" font-weight="400" letter-spacing="0" word-spacing="0" fill="#df0000" font-family="Bitstream Vera Sans"><tspan x="-161.09" y="-213.51" style="-inkscape-font-specification:Arial" font-family="Arial">A</tspan></text><path d="M144 209.25c5.43 0 6.16-5.45 6.16-5.45s.72 5.45 6.15 5.45c3.8 0 7.24-2.45 7.24-7.05 0-6.1-11.01-12.22-13.4-21.16-2.26 8.93-13.39 15.07-13.39 21.16 0 4.6 3.44 7.05 7.24 7.05z" fill="#df0000"/></svg>