<svg xmlns="http://www.w3.org/2000/svg" xmlns:xlink="http://www.w3.org/1999/xlink" width="222.78" height="323.56" viewBox="0 0 167.09 242.67"><defs><radialGradient xlink:href="#a" id="e" cx="48.23" cy="18.14" fx="48.23" fy="18.14" r="9.5" gradientUnits="userSpaceOnUse" gradientTransform="matrix(-1.56053 .01828 -.02684 -2.29095 123.98 58.81)"/><radialGradient xlink:href="#b" id="f" cx="171.49" cy="511.22" fx="171.49" fy="511.22" r="81.9" gradientTransform="matrix(1.15299 -.67392 .39482 .67549 -233.63 270.4)" gradientUnits="userSpaceOnUse"/><radialGradient r="81.9" fy="511.22" fx="171.49" cy="511.22" cx="171.49" gradientTransform="matrix(1.15299 -.67392 .39482 .67549 -233.63 270.4)" gradientUnits="userSpaceOnUse" id="g" xlink:href="#c"/><radialGradient r="81.9" fy="461.84" fx="181.69" cy="461.84" cx="181.69" gradientTransform="matrix(1.15299 -.67392 .39482 .67549 -233.63 270.4)" gradientUnits="userSpaceOnUse" id="h" xlink:href="#d"/><linearGradient id="a"><stop offset="0"/><stop offset="1" stop-opacity=".66"/></linearGradient><linearGradient id="b"><stop offset="0" stop-color="#fff" stop-opacity=".53"/><stop offset="1" stop-opacity="0"/></linearGradient><linearGradient id="c"><stop offset="0" stop-color="#fff" stop-opacity=".52"/><stop offset="1" stop-opacity="0"/></linearGradient><linearGradient id="d"><stop offset="0" stop-color="#fff" stop-opacity=".7"/><stop offset="1" stop-opacity="0"/></linearGradient></defs><path d="M166.84 235.55a6.89 6.89 0 01-6.87 6.87H7.1a6.89 6.89 0 01-6.86-6.87V7.12A6.89 6.89 0 017.1.25h152.86c3.78 0 6.87 3.1 6.87 6.87v228.43z" fill="#fff" stroke-width=".5" stroke="#000"/><text style="line-height:125%" x="6.71" y="27.55" font-size="32" font-weight="400" letter-spacing="0" word-spacing="0" font-family="Bitstream Vera Sans"><tspan x="6.71" y="27.55" style="-inkscape-font-specification:Arial" font-family="Arial">A</tspan></text><path d="M50.3 22.7s2.37-1.9 2.37-4.54c0-1.54-1.37-4.1-4.54-4.1s-4.53 2.56-4.53 4.1c0 2.64 2.37 4.54 2.37 4.54-2.63-2.06-7.34-.65-7.34 3.45a4.36 4.36 0 004.32 4.32c3.16 0 4.53-3.45 4.53-3.45s.4 3.93-1.94 6.04h5.18c-2.34-2.1-1.94-6.04-1.94-6.04s1.37 3.45 4.53 3.45a4.36 4.36 0 004.32-4.32c0-4.1-4.7-5.5-7.34-3.45z" transform="translate(-203.78 -22.11) scale(5.97203)" fill="url(#e)"/><path transform="matrix(.22864 0 0 .24885 1.17 -6.44)" d="M117.3 604.27s-8.07-94.95 22.86-122.86c34.76-31.37 140-11.43 140-11.43s-71.54 24.84-100 48.57c-27.21 22.7-62.86 85.72-62.86 85.72z" fill="url(#f)" filter="url(#filter3834)"/><path transform="matrix(.22864 0 0 .24885 33.04 -51.98)" d="M117.3 604.27s-8.07-94.95 22.86-122.86c34.76-31.37 140-11.43 140-11.43s-71.54 24.84-100 48.57c-27.21 22.7-62.86 85.72-62.86 85.72z" fill="url(#g)" filter="url(#filter3834-6)"/><path transform="matrix(.23543 .1449 -.17355 .28197 159.23 -46.38)" d="M117.3 604.27s-8.07-94.95 22.86-122.86c34.76-31.37 140-11.43 140-11.43s-71.54 24.84-100 48.57c-27.21 22.7-62.86 85.72-62.86 85.72z" fill="url(#h)" filter="url(#filter3834-7)"/><path d="M14.72 41.67v151.37h137.53V41.67H14.72zm68.9 20.12c18.9 0 27.09 15.3 27.09 24.5 0 15.73-14.19 27.08-14.19 27.08 15.76-12.28 43.84-3.9 43.84 20.63 0 12.27-10.03 25.79-25.79 25.79-18.9 0-27.07-20.63-27.07-20.63s-2.4 23.52 11.6 36.1H68.15c14-12.59 11.61-36.1 11.61-36.1s-8.17 20.63-27.07 20.63c-15.76 0-25.8-13.51-25.8-25.79 0-24.53 28.1-32.9 43.85-20.63 0 0-14.19-11.35-14.19-27.08 0-9.2 8.18-24.5 27.08-24.5z" fill="#fffeff"/><path d="M20.69 43.74s3.53-2.82 3.53-6.74c0-2.29-2.03-6.09-6.74-6.09s-6.73 3.8-6.73 6.1c0 3.9 3.53 6.73 3.53 6.73-3.92-3.05-10.91-.97-10.91 5.13 0 3.06 2.5 6.42 6.42 6.42 4.7 0 6.73-5.13 6.73-5.13s.6 5.85-2.89 8.98h7.7c-3.48-3.13-2.88-8.98-2.88-8.98s2.03 5.13 6.73 5.13a6.48 6.48 0 006.42-6.42c0-6.1-6.99-8.18-10.9-5.13z"/><text style="line-height:125%" x="-160.46" y="-214.47" transform="scale(-1)" font-size="32" font-weight="400" letter-spacing="0" word-spacing="0" font-family="Bitstream Vera Sans"><tspan x="-160.46" y="-214.47" style="-inkscape-font-specification:Arial" font-family="Arial">A</tspan></text><path d="M146.48 198.74s-3.52 2.82-3.52 6.74c0 2.29 2.03 6.09 6.73 6.09s6.74-3.8 6.74-6.1c0-3.9-3.53-6.73-3.53-6.73 3.92 3.05 10.9.97 10.9-5.13 0-3.06-2.5-6.42-6.41-6.42-4.7 0-6.74 5.14-6.74 5.14s-.6-5.85 2.89-8.99h-7.7c3.49 3.13 2.89 8.99 2.89 8.99s-2.03-5.14-6.74-5.14a6.48 6.48 0 00-6.41 6.42c0 6.1 6.98 8.18 10.9 5.13z"/></svg>