<svg xmlns="http://www.w3.org/2000/svg" width="222.78" height="323.56" viewBox="0 0 167.09 242.67"><path d="M166.84 235.55a6.89 6.89 0 01-6.87 6.87H7.1a6.89 6.89 0 01-6.86-6.87V7.12A6.89 6.89 0 017.1.25h152.86c3.78 0 6.87 3.1 6.87 6.87v228.43z" fill="#fff" stroke-width=".5" stroke="#000"/><text style="line-height:125%" x="3.94" y="27.36" font-size="32" font-weight="400" letter-spacing="0" word-spacing="0" fill="#df0000" font-family="Bitstream Vera Sans"><tspan x="3.94" y="27.36" style="-inkscape-font-specification:LMMathSymbols9 Bold Italic" font-style="italic" font-weight="700" font-family="LMMathSymbols9">J</tspan></text><path d="M128.77 119.03c7.87-8.98 6.68-41.88 10.1-46.4-4.51 3.42-37.41 2.23-46.4 10.1-6.33 5.58-4.57 12.28-.72 16.13 4.22 4.12 13.43 1.8 15.74 1.86-.94 2.03-17.52 10.23-18.83 8.93l13.2 13.2c-1.3-1.32 6.9-17.9 8.93-18.83 0 2.07-2.69 10.85 1.86 15.73 3.85 3.85 10.55 5.61 16.12-.73z"/><text style="line-height:125%" x="4.27" y="49.05" font-size="32" font-weight="400" letter-spacing="0" word-spacing="0" fill="#df0000" font-family="Bitstream Vera Sans"><tspan x="4.27" y="49.05" style="-inkscape-font-specification:URW Chancery L Bold Italic" font-size="38.4" font-style="italic" font-weight="700" font-family="URW Chancery L">o</tspan></text><text style="line-height:125%" x="2.63" y="76.99" font-size="32" font-weight="400" letter-spacing="0" word-spacing="0" fill="#df0000" font-family="Bitstream Vera Sans"><tspan x="2.63" y="76.99" style="-inkscape-font-specification:URW Chancery L Bold Italic" font-size="38.4" font-style="italic" font-weight="700" font-family="URW Chancery L">k</tspan></text><text style="line-height:125%" x="2.63" y="99.34" font-size="32" font-weight="400" letter-spacing="0" word-spacing="0" fill="#df0000" font-family="Bitstream Vera Sans"><tspan x="2.63" y="99.34" style="-inkscape-font-specification:URW Chancery L Bold Italic" font-size="38.4" font-style="italic" font-weight="700" font-family="URW Chancery L">e</tspan></text><text style="line-height:125%" x="2.3" y="120.38" font-size="32" font-weight="400" letter-spacing="0" word-spacing="0" fill="#df0000" font-family="Bitstream Vera Sans"><tspan x="2.3" y="120.38" style="-inkscape-font-specification:URW Chancery L Bold Italic" font-size="38.4" font-style="italic" font-weight="700" font-family="URW Chancery L">r</tspan></text><path d="M48.11 66.9c-7.7 7.7-1 16.46-1 16.46s-8.75-6.7-16.45 1c-5.4 5.4-6.8 13.73-.27 20.27 8.63 8.64 32.94 1.7 49 11C69.91 99.75 77 75.28 68.37 66.64c-6.54-6.54-14.88-5.12-20.27.27z" fill="#df0000"/><path d="M50.99 149.16s-9.17-1.02-14.82 4.63c-3.31 3.31-5.87 11.74.92 18.53 6.8 6.8 15.23 4.24 18.53.93 5.66-5.65 4.64-14.82 4.64-14.82 1.25 10.07 14.35 17.15 23.16 8.33 4.41-4.4 5.66-12.87 0-18.53-6.79-6.79-17.14-2.31-17.14-2.31s7.59-9.31 17.14-8.8L72.3 125.98c.51 9.56-8.8 17.15-8.8 17.15s4.47-10.35-2.32-17.14c-5.66-5.67-14.12-4.41-18.53 0-8.81 8.8-1.73 21.91 8.34 23.16z"/><path d="M114.48 138.36a87.92 87.92 0 01-20.16-5.66s3.99 9.02 5.66 20.16c1.66 11.13-.07 21.19-.07 21.19s10.06-1.74 21.2-.07c11.12 1.67 20.15 5.66 20.15 5.66s-4-9.03-5.66-20.16c-1.67-11.13.07-21.2.07-21.2s-10.06 1.74-21.2.08z" fill="#df0000"/><text style="line-height:125%" x="-163.72" y="-215" transform="scale(-1)" font-size="32" font-weight="400" letter-spacing="0" word-spacing="0" fill="#df0000" font-family="Bitstream Vera Sans"><tspan x="-163.72" y="-215" style="-inkscape-font-specification:LMMathSymbols9 Bold Italic" font-style="italic" font-weight="700" font-family="LMMathSymbols9">J</tspan></text><text style="line-height:125%" x="-163.39" y="-193.31" transform="scale(-1)" font-size="32" font-weight="400" letter-spacing="0" word-spacing="0" fill="#df0000" font-family="Bitstream Vera Sans"><tspan x="-163.39" y="-193.31" style="-inkscape-font-specification:URW Chancery L Bold Italic" font-size="38.4" font-style="italic" font-weight="700" font-family="URW Chancery L">o</tspan></text><text style="line-height:125%" x="-165.03" y="-165.37" transform="scale(-1)" font-size="32" font-weight="400" letter-spacing="0" word-spacing="0" fill="#df0000" font-family="Bitstream Vera Sans"><tspan x="-165.03" y="-165.37" style="-inkscape-font-specification:URW Chancery L Bold Italic" font-size="38.4" font-style="italic" font-weight="700" font-family="URW Chancery L">k</tspan></text><text style="line-height:125%" x="-165.03" y="-143.01" transform="scale(-1)" font-size="32" font-weight="400" letter-spacing="0" word-spacing="0" fill="#df0000" font-family="Bitstream Vera Sans"><tspan x="-165.03" y="-143.01" style="-inkscape-font-specification:URW Chancery L Bold Italic" font-size="38.4" font-style="italic" font-weight="700" font-family="URW Chancery L">e</tspan></text><text style="line-height:125%" x="-165.36" y="-121.97" transform="scale(-1)" font-size="32" font-weight="400" letter-spacing="0" word-spacing="0" fill="#df0000" font-family="Bitstream Vera Sans"><tspan x="-165.36" y="-121.97" style="-inkscape-font-specification:URW Chancery L Bold Italic" font-size="38.4" font-style="italic" font-weight="700" font-family="URW Chancery L">r</tspan></text></svg>